<mxfile host="app.diagrams.net" modified="2024-07-13T00:14:48.622Z" agent="Mozilla/5.0 (Windows NT 10.0; Win64; x64) AppleWebKit/537.36 (KHTML, like Gecko) Chrome/126.0.0.0 Safari/537.36 Edg/126.0.0.0" etag="4V8GpiSAqfHAYJKggqtA" version="24.6.5" type="github">
  <diagram id="C5RBs43oDa-KdzZeNtuy" name="Page-1">
    <mxGraphModel dx="1484" dy="1930" grid="1" gridSize="10" guides="1" tooltips="1" connect="1" arrows="1" fold="1" page="1" pageScale="1" pageWidth="827" pageHeight="1169" math="0" shadow="0">
      <root>
        <mxCell id="WIyWlLk6GJQsqaUBKTNV-0" />
        <mxCell id="WIyWlLk6GJQsqaUBKTNV-1" parent="WIyWlLk6GJQsqaUBKTNV-0" />
        <mxCell id="-EZe4vIISqpXjpl0UJGr-61" style="edgeStyle=orthogonalEdgeStyle;rounded=0;orthogonalLoop=1;jettySize=auto;html=1;entryX=0.5;entryY=0;entryDx=0;entryDy=0;" edge="1" parent="WIyWlLk6GJQsqaUBKTNV-1" source="-EZe4vIISqpXjpl0UJGr-2" target="-EZe4vIISqpXjpl0UJGr-5">
          <mxGeometry relative="1" as="geometry" />
        </mxCell>
        <mxCell id="-EZe4vIISqpXjpl0UJGr-2" value="&lt;div&gt;&lt;br&gt;&lt;/div&gt;&lt;div&gt;&lt;br&gt;&lt;/div&gt;&lt;div&gt;&lt;br&gt;&lt;/div&gt;&lt;div&gt;&lt;br&gt;&lt;/div&gt;&lt;div&gt;&lt;br&gt;&lt;/div&gt;&lt;div&gt;&lt;br&gt;&lt;/div&gt;&lt;div&gt;Usuario&lt;/div&gt;" style="shape=actor;whiteSpace=wrap;html=1;points=[[0,0.75,0,0,0],[0.1,0.5,0,0,0],[0.25,0.2,0,0,0],[0.25,1,0,0,0],[0.5,0,0,0,0],[0.5,1,0,0,0],[0.75,0.25,0,0,0],[0.75,1,0,0,0],[0.9,0.5,0,0,0],[1,0.75,0,0,0]];" vertex="1" parent="WIyWlLk6GJQsqaUBKTNV-1">
          <mxGeometry x="490" y="-400" width="40" height="60" as="geometry" />
        </mxCell>
        <mxCell id="-EZe4vIISqpXjpl0UJGr-19" style="edgeStyle=orthogonalEdgeStyle;rounded=0;orthogonalLoop=1;jettySize=auto;html=1;entryX=1;entryY=0.5;entryDx=0;entryDy=0;" edge="1" parent="WIyWlLk6GJQsqaUBKTNV-1" source="-EZe4vIISqpXjpl0UJGr-5" target="-EZe4vIISqpXjpl0UJGr-18">
          <mxGeometry relative="1" as="geometry">
            <mxPoint x="320" y="60" as="targetPoint" />
          </mxGeometry>
        </mxCell>
        <mxCell id="-EZe4vIISqpXjpl0UJGr-63" style="edgeStyle=orthogonalEdgeStyle;rounded=0;orthogonalLoop=1;jettySize=auto;html=1;entryX=0;entryY=0.5;entryDx=0;entryDy=0;" edge="1" parent="WIyWlLk6GJQsqaUBKTNV-1" source="-EZe4vIISqpXjpl0UJGr-5" target="-EZe4vIISqpXjpl0UJGr-22">
          <mxGeometry relative="1" as="geometry" />
        </mxCell>
        <mxCell id="-EZe4vIISqpXjpl0UJGr-5" value="Pagina Principal&lt;div&gt;Lista de Post&lt;/div&gt;" style="rounded=1;whiteSpace=wrap;html=1;" vertex="1" parent="WIyWlLk6GJQsqaUBKTNV-1">
          <mxGeometry x="450" y="-210" width="120" height="60" as="geometry" />
        </mxCell>
        <mxCell id="-EZe4vIISqpXjpl0UJGr-18" value="Ver post" style="rounded=1;whiteSpace=wrap;html=1;" vertex="1" parent="WIyWlLk6GJQsqaUBKTNV-1">
          <mxGeometry x="260" y="-210" width="120" height="60" as="geometry" />
        </mxCell>
        <mxCell id="-EZe4vIISqpXjpl0UJGr-31" style="edgeStyle=orthogonalEdgeStyle;rounded=0;orthogonalLoop=1;jettySize=auto;html=1;" edge="1" parent="WIyWlLk6GJQsqaUBKTNV-1" source="-EZe4vIISqpXjpl0UJGr-22" target="-EZe4vIISqpXjpl0UJGr-27">
          <mxGeometry relative="1" as="geometry" />
        </mxCell>
        <mxCell id="-EZe4vIISqpXjpl0UJGr-22" value="Login" style="rounded=1;whiteSpace=wrap;html=1;" vertex="1" parent="WIyWlLk6GJQsqaUBKTNV-1">
          <mxGeometry x="680" y="-210" width="120" height="60" as="geometry" />
        </mxCell>
        <mxCell id="-EZe4vIISqpXjpl0UJGr-30" style="edgeStyle=orthogonalEdgeStyle;rounded=0;orthogonalLoop=1;jettySize=auto;html=1;entryX=0.5;entryY=1;entryDx=0;entryDy=0;" edge="1" parent="WIyWlLk6GJQsqaUBKTNV-1" source="-EZe4vIISqpXjpl0UJGr-27" target="-EZe4vIISqpXjpl0UJGr-5">
          <mxGeometry relative="1" as="geometry">
            <mxPoint x="360" y="-30" as="targetPoint" />
          </mxGeometry>
        </mxCell>
        <mxCell id="-EZe4vIISqpXjpl0UJGr-62" style="edgeStyle=orthogonalEdgeStyle;rounded=0;orthogonalLoop=1;jettySize=auto;html=1;entryX=0;entryY=0.5;entryDx=0;entryDy=0;" edge="1" parent="WIyWlLk6GJQsqaUBKTNV-1" source="-EZe4vIISqpXjpl0UJGr-27" target="-EZe4vIISqpXjpl0UJGr-32">
          <mxGeometry relative="1" as="geometry" />
        </mxCell>
        <mxCell id="-EZe4vIISqpXjpl0UJGr-27" value="E Professor?" style="rhombus;whiteSpace=wrap;html=1;fillColor=#e1d5e7;strokeColor=#9673a6;" vertex="1" parent="WIyWlLk6GJQsqaUBKTNV-1">
          <mxGeometry x="700" y="-60" width="80" height="80" as="geometry" />
        </mxCell>
        <mxCell id="-EZe4vIISqpXjpl0UJGr-40" style="edgeStyle=orthogonalEdgeStyle;rounded=0;orthogonalLoop=1;jettySize=auto;html=1;entryX=0;entryY=0.5;entryDx=0;entryDy=0;" edge="1" parent="WIyWlLk6GJQsqaUBKTNV-1" source="-EZe4vIISqpXjpl0UJGr-32" target="-EZe4vIISqpXjpl0UJGr-64">
          <mxGeometry relative="1" as="geometry" />
        </mxCell>
        <mxCell id="-EZe4vIISqpXjpl0UJGr-32" value="Autenticacao" style="rounded=1;whiteSpace=wrap;html=1;" vertex="1" parent="WIyWlLk6GJQsqaUBKTNV-1">
          <mxGeometry x="880" y="-50" width="120" height="60" as="geometry" />
        </mxCell>
        <mxCell id="-EZe4vIISqpXjpl0UJGr-71" style="edgeStyle=orthogonalEdgeStyle;rounded=0;orthogonalLoop=1;jettySize=auto;html=1;entryX=0;entryY=0.5;entryDx=0;entryDy=0;" edge="1" parent="WIyWlLk6GJQsqaUBKTNV-1" source="-EZe4vIISqpXjpl0UJGr-34" target="-EZe4vIISqpXjpl0UJGr-41">
          <mxGeometry relative="1" as="geometry" />
        </mxCell>
        <mxCell id="-EZe4vIISqpXjpl0UJGr-34" value="Administracao" style="rounded=1;whiteSpace=wrap;html=1;" vertex="1" parent="WIyWlLk6GJQsqaUBKTNV-1">
          <mxGeometry x="1100" y="120" width="120" height="60" as="geometry" />
        </mxCell>
        <mxCell id="-EZe4vIISqpXjpl0UJGr-36" value="&lt;b&gt;Nao&lt;/b&gt;" style="text;html=1;align=center;verticalAlign=middle;resizable=0;points=[];autosize=1;strokeColor=none;fillColor=none;" vertex="1" parent="WIyWlLk6GJQsqaUBKTNV-1">
          <mxGeometry x="570" y="-45" width="50" height="30" as="geometry" />
        </mxCell>
        <mxCell id="-EZe4vIISqpXjpl0UJGr-37" value="&lt;b&gt;Sim&lt;/b&gt;" style="text;html=1;align=center;verticalAlign=middle;resizable=0;points=[];autosize=1;strokeColor=none;fillColor=none;" vertex="1" parent="WIyWlLk6GJQsqaUBKTNV-1">
          <mxGeometry x="800" y="-45" width="50" height="30" as="geometry" />
        </mxCell>
        <mxCell id="-EZe4vIISqpXjpl0UJGr-73" style="edgeStyle=orthogonalEdgeStyle;rounded=0;orthogonalLoop=1;jettySize=auto;html=1;exitX=0.5;exitY=0;exitDx=0;exitDy=0;entryX=0.75;entryY=1;entryDx=0;entryDy=0;" edge="1" parent="WIyWlLk6GJQsqaUBKTNV-1" source="-EZe4vIISqpXjpl0UJGr-41" target="-EZe4vIISqpXjpl0UJGr-64">
          <mxGeometry relative="1" as="geometry" />
        </mxCell>
        <mxCell id="-EZe4vIISqpXjpl0UJGr-41" value="Criar Post" style="rounded=1;whiteSpace=wrap;html=1;fillColor=#dae8fc;strokeColor=#6c8ebf;" vertex="1" parent="WIyWlLk6GJQsqaUBKTNV-1">
          <mxGeometry x="1350" y="120" width="120" height="60" as="geometry" />
        </mxCell>
        <mxCell id="-EZe4vIISqpXjpl0UJGr-68" style="edgeStyle=orthogonalEdgeStyle;rounded=0;orthogonalLoop=1;jettySize=auto;html=1;entryX=0;entryY=0.5;entryDx=0;entryDy=0;" edge="1" parent="WIyWlLk6GJQsqaUBKTNV-1" source="-EZe4vIISqpXjpl0UJGr-45" target="-EZe4vIISqpXjpl0UJGr-54">
          <mxGeometry relative="1" as="geometry" />
        </mxCell>
        <mxCell id="-EZe4vIISqpXjpl0UJGr-45" value="Editar Post" style="rounded=1;whiteSpace=wrap;html=1;fillColor=#dae8fc;strokeColor=#6c8ebf;" vertex="1" parent="WIyWlLk6GJQsqaUBKTNV-1">
          <mxGeometry x="1100" y="-220" width="120" height="60" as="geometry" />
        </mxCell>
        <mxCell id="-EZe4vIISqpXjpl0UJGr-47" value="Excluir Post" style="rounded=1;whiteSpace=wrap;html=1;fillColor=#dae8fc;strokeColor=#6c8ebf;" vertex="1" parent="WIyWlLk6GJQsqaUBKTNV-1">
          <mxGeometry x="1350" y="-50" width="120" height="60" as="geometry" />
        </mxCell>
        <mxCell id="-EZe4vIISqpXjpl0UJGr-54" value="Ver post" style="rounded=1;whiteSpace=wrap;html=1;" vertex="1" parent="WIyWlLk6GJQsqaUBKTNV-1">
          <mxGeometry x="1350" y="-220" width="120" height="60" as="geometry" />
        </mxCell>
        <mxCell id="-EZe4vIISqpXjpl0UJGr-65" style="edgeStyle=orthogonalEdgeStyle;rounded=0;orthogonalLoop=1;jettySize=auto;html=1;" edge="1" parent="WIyWlLk6GJQsqaUBKTNV-1" source="-EZe4vIISqpXjpl0UJGr-64" target="-EZe4vIISqpXjpl0UJGr-34">
          <mxGeometry relative="1" as="geometry" />
        </mxCell>
        <mxCell id="-EZe4vIISqpXjpl0UJGr-66" style="edgeStyle=orthogonalEdgeStyle;rounded=0;orthogonalLoop=1;jettySize=auto;html=1;" edge="1" parent="WIyWlLk6GJQsqaUBKTNV-1" source="-EZe4vIISqpXjpl0UJGr-64" target="-EZe4vIISqpXjpl0UJGr-47">
          <mxGeometry relative="1" as="geometry" />
        </mxCell>
        <mxCell id="-EZe4vIISqpXjpl0UJGr-67" style="edgeStyle=orthogonalEdgeStyle;rounded=0;orthogonalLoop=1;jettySize=auto;html=1;entryX=0.5;entryY=1;entryDx=0;entryDy=0;" edge="1" parent="WIyWlLk6GJQsqaUBKTNV-1" source="-EZe4vIISqpXjpl0UJGr-64" target="-EZe4vIISqpXjpl0UJGr-45">
          <mxGeometry relative="1" as="geometry" />
        </mxCell>
        <mxCell id="-EZe4vIISqpXjpl0UJGr-64" value="Pagina Principal&lt;div&gt;Lista de Post&lt;/div&gt;" style="rounded=1;whiteSpace=wrap;html=1;" vertex="1" parent="WIyWlLk6GJQsqaUBKTNV-1">
          <mxGeometry x="1100" y="-50" width="120" height="60" as="geometry" />
        </mxCell>
      </root>
    </mxGraphModel>
  </diagram>
</mxfile>
